<?xml version="1.0"?>
<svg xmlns="http://www.w3.org/2000/svg" viewBox="0 0 192 192" width="512" height="512"><g id="_02-ball" data-name="02-ball"><g id="Glyph"><path d="M96,168a64,64,0,1,0-64-64A64.072,64.072,0,0,0,96,168Zm32-96a8,8,0,1,1-8,8A8,8,0,0,1,128,72ZM53.739,99.326A14.246,14.246,0,0,0,67.87,85a2,2,0,0,1,4,0A14.245,14.245,0,0,0,86,99.326a2,2,0,0,1,0,4,14.245,14.245,0,0,0-14.13,14.326,2,2,0,0,1-4,0,14.246,14.246,0,0,0-14.131-14.326,2,2,0,0,1,0-4Z"/><path d="M63.739,20.326A14.246,14.246,0,0,1,77.87,34.652a2,2,0,0,0,4,0A14.245,14.245,0,0,1,96,20.326a2,2,0,0,0,0-4A14.245,14.245,0,0,1,81.87,2a2,2,0,0,0-4,0A14.246,14.246,0,0,1,63.739,16.326a2,2,0,0,0,0,4Z"/><path d="M36,56.326a2,2,0,0,0-2-2A14.245,14.245,0,0,1,19.87,40a2,2,0,1,0-4,0A14.246,14.246,0,0,1,1.739,54.326a2,2,0,1,0,0,4A14.246,14.246,0,0,1,15.87,72.652a2,2,0,1,0,4,0A14.245,14.245,0,0,1,34,58.326,2,2,0,0,0,36,56.326Z"/><path d="M144.513,157.2a71.991,71.991,0,0,1-97.026,0L34.343,170.343A8,8,0,0,0,32,176v8a8,8,0,0,0,8,8H152a8,8,0,0,0,8-8v-8a8,8,0,0,0-2.343-5.657Z"/></g></g></svg>
