<?xml version="1.0" encoding="UTF-8"?>
<svg xmlns="http://www.w3.org/2000/svg" xmlns:xlink="http://www.w3.org/1999/xlink" version="1.1" id="Capa_1" x="0px" y="0px" viewBox="0 0 511 511" style="enable-background:new 0 0 511 511;" xml:space="preserve" width="512" height="512">
<g>
	<path style="fill:none;stroke:#000000;stroke-width:20;stroke-linecap:round;stroke-linejoin:round;stroke-miterlimit:10;" d="&#10;&#9;&#9;M481,494.494H30c-11.046,0-20-8.954-20-20V236.751c0-11.046,8.954-20,20-20h451c11.046,0,20,8.954,20,20v237.743&#10;&#9;&#9;C501,485.54,492.046,494.494,481,494.494z"/>
	<path style="fill:none;stroke:#000000;stroke-width:20;stroke-linecap:round;stroke-linejoin:round;stroke-miterlimit:10;" d="&#10;&#9;&#9;M210.657,454.497H99.12c0-27.13-21.99-49.13-49.12-49.13v-99.49c27.13,0,49.12-21.99,49.12-49.13h312.76&#10;&#9;&#9;c0,27.14,21.99,49.13,49.12,49.13v99.49c-27.13,0-49.12,22-49.12,49.13H300.343"/>
	
		<line style="fill:none;stroke:#000000;stroke-width:20;stroke-linecap:round;stroke-linejoin:round;stroke-miterlimit:10;" x1="50" y1="256.747" x2="50" y2="256.747"/>
	
		<line style="fill:none;stroke:#000000;stroke-width:20;stroke-linecap:round;stroke-linejoin:round;stroke-miterlimit:10;" x1="50" y1="454.497" x2="50" y2="454.497"/>
	
		<line style="fill:none;stroke:#000000;stroke-width:20;stroke-linecap:round;stroke-linejoin:round;stroke-miterlimit:10;" x1="461" y1="256.747" x2="461" y2="256.747"/>
	
		<line style="fill:none;stroke:#000000;stroke-width:20;stroke-linecap:round;stroke-linejoin:round;stroke-miterlimit:10;" x1="461" y1="454.497" x2="461" y2="454.497"/>
	<path style="fill:none;stroke:#000000;stroke-width:20;stroke-linecap:round;stroke-linejoin:round;stroke-miterlimit:10;" d="&#10;&#9;&#9;M279.189,344.125h-47.378c-11.046,0-20-8.954-20-20v-67.378h87.378v67.378C299.189,335.171,290.235,344.125,279.189,344.125z"/>
	
		<line style="fill:none;stroke:#000000;stroke-width:20;stroke-linecap:round;stroke-linejoin:round;stroke-miterlimit:10;" x1="255.5" y1="293.561" x2="255.5" y2="307.311"/>
	<path style="fill:none;stroke:#000000;stroke-width:20;stroke-linecap:round;stroke-linejoin:round;stroke-miterlimit:10;" d="&#10;&#9;&#9;M26.23,217.107c9.62-10.61,25.99-17.71,36.02-29.15c11.69-13.33,15.62-39.21,32.18-49.65c14.89-9.38,38.53-1.26,56.54-7.75&#10;&#9;&#9;c16.58-5.96,30.32-27.93,48.92-31.01c17.43-2.88,36.91,13.4,55.61,13.4s38.18-16.28,55.61-13.4c18.6,3.08,32.34,25.05,48.92,31.02&#10;&#9;&#9;c18.01,6.48,41.65-1.64,56.54,7.74c16.56,10.44,20.49,36.32,32.18,49.65c10.03,11.44,26.4,18.54,36.02,29.15"/>
	<path style="fill:none;stroke:#000000;stroke-width:20;stroke-linecap:round;stroke-linejoin:round;stroke-miterlimit:10;" d="&#10;&#9;&#9;M224.474,165.025c17.135-17.135,44.917-17.135,62.053,0"/>
	<path style="fill:none;stroke:#000000;stroke-width:20;stroke-linecap:round;stroke-linejoin:round;stroke-miterlimit:10;" d="&#10;&#9;&#9;M133.209,180.263c9.008-9.197,23.766-9.349,32.962-0.341"/>
	<path style="fill:none;stroke:#000000;stroke-width:20;stroke-linecap:round;stroke-linejoin:round;stroke-miterlimit:10;" d="&#10;&#9;&#9;M344.829,180.263c9.008-9.197,23.766-9.349,32.962-0.341"/>
	
		<line style="fill:none;stroke:#000000;stroke-width:20;stroke-linecap:round;stroke-linejoin:round;stroke-miterlimit:10;" x1="255.5" y1="32.278" x2="255.5" y2="48.147"/>
	
		<line style="fill:none;stroke:#000000;stroke-width:20;stroke-linecap:round;stroke-linejoin:round;stroke-miterlimit:10;" x1="149.125" y1="52.01" x2="161.875" y2="65.753"/>
	
		<line style="fill:none;stroke:#000000;stroke-width:20;stroke-linecap:round;stroke-linejoin:round;stroke-miterlimit:10;" x1="361.875" y1="52.01" x2="349.125" y2="65.753"/>
	<path style="fill:none;stroke:#000000;stroke-width:20;stroke-linecap:round;stroke-linejoin:round;stroke-miterlimit:10;" d="&#10;&#9;&#9;M459.606,19.108l11.338,20.73l20.73,11.338c3.469,1.897,3.469,6.88,0,8.777l-20.73,11.338l-11.338,20.73&#10;&#9;&#9;c-1.897,3.469-6.88,3.469-8.777,0l-10.635-19.445c-0.459-0.839-1.149-1.529-1.988-1.988l-19.445-10.635&#10;&#9;&#9;c-3.469-1.897-3.469-6.88,0-8.777l20.73-11.338l11.338-20.73C452.726,15.639,457.709,15.639,459.606,19.108z"/>
	<path style="fill:none;stroke:#000000;stroke-width:20;stroke-linecap:round;stroke-linejoin:round;stroke-miterlimit:10;" d="&#10;&#9;&#9;M60.171,19.108l11.338,20.73l20.73,11.338c3.469,1.897,3.469,6.88,0,8.777L71.509,71.29L60.171,92.02&#10;&#9;&#9;c-1.897,3.469-6.88,3.469-8.777,0L40.759,72.576c-0.459-0.839-1.149-1.529-1.988-1.988L19.326,59.953&#10;&#9;&#9;c-3.469-1.897-3.469-6.88,0-8.777l20.73-11.338l11.338-20.73C53.291,15.639,58.274,15.639,60.171,19.108z"/>
	
		<line style="fill:none;stroke:#000000;stroke-width:20;stroke-linecap:round;stroke-linejoin:round;stroke-miterlimit:10;" x1="255.511" y1="454.497" x2="255.511" y2="454.497"/>
</g>















</svg>
